<svg xmlns="http://www.w3.org/2000/svg" xmlns:xlink="http://www.w3.org/1999/xlink" viewBox="0 0 220.253 226.583"><defs><path id="a" d="M14.328 53.616c.625-9.442 8.645-19.066 17.817-21.388L131.37 7.114c9.174-2.322 20.805 2.33 25.85 10.335l54.547 86.608c5.043 8.005 4.213 20.506-1.844 27.775l-65.514 78.64c-6.056 7.27-18.2 10.344-26.984 6.83l-95.04-38.005c-8.784-3.512-15.46-14.11-14.832-23.554l6.774-102.128z"/></defs><clipPath id="b"><use xlink:href="#a" overflow="visible"/></clipPath><g clip-path="url(#b)"><path fill="#FED818" d="M14.328 53.616c.625-9.442 8.645-19.066 17.817-21.388L131.37 7.114c9.174-2.322 20.805 2.33 25.85 10.335l54.547 86.608c5.043 8.005 4.213 20.506-1.844 27.775l-65.514 78.64c-6.056 7.27-18.2 10.344-26.984 6.83l-95.04-38.005c-8.784-3.512-15.46-14.11-14.832-23.554l6.774-102.128z"/><path opacity=".65" fill="#FEDF53" d="M-72.023-42.654c.625-9.44 8.644-19.065 17.816-21.388L45.02-89.156c9.172-2.322 20.802 2.33 25.846 10.335l54.55 86.608c5.042 8.004 4.212 20.505-1.845 27.774l-65.513 78.642c-6.056 7.27-18.198 10.343-26.984 6.83L-63.964 83.03c-8.785-3.512-15.462-14.113-14.834-23.554l6.775-102.13z"/><path opacity=".25" fill="#008ABE" d="M-134.306 129.21c-4.83-8.138-3.67-20.61 2.577-27.717l67.572-76.88c6.246-7.107 18.467-9.86 27.157-6.115l94 40.507c8.69 3.743 15.082 14.517 14.206 23.938l-9.478 101.915c-.874 9.42-9.145 18.83-18.375 20.908l-99.855 22.48c-9.23 2.08-20.735-2.88-25.563-11.017l-52.24-88.02z"/><path opacity=".25" fill="#008ABE" d="M-46.315 243.35c-4.83-8.137-3.67-20.608 2.576-27.717l67.572-76.878c6.246-7.108 18.467-9.86 27.157-6.116l94 40.507c8.687 3.74 15.08 14.517 14.205 23.937L149.72 299c-.877 9.42-9.146 18.83-18.376 20.907l-99.856 22.48c-9.23 2.08-20.736-2.88-25.564-11.017l-52.24-88.02z"/><path opacity=".2" fill="#008ABE" d="M36.458 159.208c-4.83-8.138-3.67-20.61 2.576-27.718l67.57-76.88c6.247-7.107 18.47-9.86 27.16-6.115l94 40.507c8.687 3.743 15.082 14.517 14.205 23.938l-9.48 101.915c-.874 9.42-9.145 18.83-18.374 20.908l-99.856 22.48c-9.23 2.078-20.736-2.88-25.563-11.018l-52.24-88.017z"/><path opacity=".5" fill="#FFF6D1" d="M94.476.98c.626-9.44 8.646-19.064 17.818-21.386L211.52-45.52c9.172-2.323 20.805 2.328 25.847 10.334l54.55 86.61c5.04 8.005 4.213 20.505-1.845 27.774L224.56 157.84c-6.056 7.27-18.2 10.344-26.985 6.83l-95.038-38.006c-8.785-3.51-15.462-14.11-14.833-23.554L94.476.98z"/><path opacity=".65" fill="#FEDF53" d="M91.903 143.75c.625-9.442 8.646-19.065 17.817-21.388l99.226-25.114c9.173-2.322 20.804 2.33 25.848 10.335l54.548 86.61c5.043 8.004 4.213 20.504-1.844 27.773l-65.514 78.642c-6.055 7.27-18.197 10.344-26.983 6.83l-95.037-38.005c-8.785-3.512-15.46-14.112-14.834-23.555l6.773-102.128z"/></g></svg>